<svg xmlns="http://www.w3.org/2000/svg" viewBox="0 0 1280 320" width="1280" height="320" role="img"><title>quality-gate-encoder: popcorn</title><rect width="1280" height="320" rx="18" fill="#7d1420"/><g fill="#fff4d6" stroke="#e5bd6a" stroke-width="2.5"><circle cx="1105" cy="51" r="17"/><circle cx="1133" cy="50" r="17"/><circle cx="1119" cy="37" r="17"/></g><circle cx="1119" cy="47" r="14" fill="#fff4d6"/><g fill="#fff4d6" stroke="#e5bd6a" stroke-width="2.5"><circle cx="1040" cy="53" r="18"/><circle cx="1070" cy="51" r="18"/><circle cx="1055" cy="38" r="18"/></g><circle cx="1055" cy="48" r="15" fill="#fff4d6"/><g fill="#fff4d6" stroke="#e5bd6a" stroke-width="2.5"><circle cx="1113" cy="53" r="17"/><circle cx="1142" cy="52" r="17"/><circle cx="1128" cy="39" r="17"/></g><circle cx="1128" cy="49" r="14" fill="#fff4d6"/><g fill="#fff4d6" stroke="#e5bd6a" stroke-width="2.5"><circle cx="1106" cy="58" r="18"/><circle cx="1137" cy="57" r="18"/><circle cx="1121" cy="43" r="18"/></g><circle cx="1121" cy="53" r="15" fill="#fff4d6"/><g fill="#fff4d6" stroke="#e5bd6a" stroke-width="2.5"><circle cx="1104" cy="68" r="18"/><circle cx="1134" cy="66" r="18"/><circle cx="1119" cy="53" r="18"/></g><circle cx="1119" cy="63" r="15" fill="#fff4d6"/><g fill="#fff4d6" stroke="#e5bd6a" stroke-width="2.5"><circle cx="1031" cy="69" r="19"/><circle cx="1062" cy="67" r="19"/><circle cx="1047" cy="53" r="19"/></g><circle cx="1047" cy="64" r="16" fill="#fff4d6"/><g fill="#fff4d6" stroke="#e5bd6a" stroke-width="2.5"><circle cx="1154" cy="72" r="17"/><circle cx="1183" cy="70" r="17"/><circle cx="1168" cy="57" r="17"/></g><circle cx="1168" cy="68" r="14" fill="#fff4d6"/><g fill="#fff4d6" stroke="#e5bd6a" stroke-width="2.5"><circle cx="1083" cy="72" r="15"/><circle cx="1108" cy="70" r="15"/><circle cx="1095" cy="59" r="15"/></g><circle cx="1095" cy="68" r="13" fill="#fff4d6"/><g fill="#fff4d6" stroke="#e5bd6a" stroke-width="2.5"><circle cx="1008" cy="77" r="18"/><circle cx="1038" cy="75" r="18"/><circle cx="1023" cy="62" r="18"/></g><circle cx="1023" cy="72" r="15" fill="#fff4d6"/><g fill="#fff4d6" stroke="#e5bd6a" stroke-width="2.5"><circle cx="1049" cy="88" r="19"/><circle cx="1080" cy="87" r="19"/><circle cx="1065" cy="73" r="19"/></g><circle cx="1065" cy="84" r="15" fill="#fff4d6"/><g fill="#fff4d6" stroke="#e5bd6a" stroke-width="2.5"><circle cx="1145" cy="88" r="18"/><circle cx="1175" cy="87" r="18"/><circle cx="1160" cy="73" r="18"/></g><circle cx="1160" cy="84" r="15" fill="#fff4d6"/><g fill="#fff4d6" stroke="#e5bd6a" stroke-width="2.5"><circle cx="1029" cy="88" r="17"/><circle cx="1057" cy="87" r="17"/><circle cx="1043" cy="74" r="17"/></g><circle cx="1043" cy="84" r="14" fill="#fff4d6"/><g fill="#fff4d6" stroke="#e5bd6a" stroke-width="2.5"><circle cx="1054" cy="89" r="17"/><circle cx="1083" cy="87" r="17"/><circle cx="1069" cy="74" r="17"/></g><circle cx="1069" cy="85" r="15" fill="#fff4d6"/><g fill="#fff4d6" stroke="#e5bd6a" stroke-width="2.5"><circle cx="1153" cy="89" r="15"/><circle cx="1178" cy="88" r="15"/><circle cx="1166" cy="76" r="15"/></g><circle cx="1166" cy="85" r="13" fill="#fff4d6"/><g fill="#fff4d6" stroke="#e5bd6a" stroke-width="2.5"><circle cx="1130" cy="91" r="18"/><circle cx="1160" cy="90" r="18"/><circle cx="1145" cy="76" r="18"/></g><circle cx="1145" cy="87" r="15" fill="#fff4d6"/><g fill="#fff4d6" stroke="#e5bd6a" stroke-width="2.5"><circle cx="1171" cy="95" r="17"/><circle cx="1199" cy="94" r="17"/><circle cx="1185" cy="81" r="17"/></g><circle cx="1185" cy="91" r="14" fill="#fff4d6"/><g fill="#fff4d6" stroke="#e5bd6a" stroke-width="2.5"><circle cx="1086" cy="97" r="16"/><circle cx="1112" cy="96" r="16"/><circle cx="1099" cy="84" r="16"/></g><circle cx="1099" cy="93" r="13" fill="#fff4d6"/><g fill="#fff4d6" stroke="#e5bd6a" stroke-width="2.5"><circle cx="1179" cy="98" r="15"/><circle cx="1203" cy="97" r="15"/><circle cx="1191" cy="86" r="15"/></g><circle cx="1191" cy="95" r="12" fill="#fff4d6"/><g fill="#fff4d6" stroke="#e5bd6a" stroke-width="2.5"><circle cx="1058" cy="103" r="18"/><circle cx="1088" cy="101" r="18"/><circle cx="1073" cy="87" r="18"/></g><circle cx="1073" cy="98" r="15" fill="#fff4d6"/><g fill="#fff4d6" stroke="#e5bd6a" stroke-width="2.5"><circle cx="1105" cy="108" r="19"/><circle cx="1136" cy="106" r="19"/><circle cx="1120" cy="92" r="19"/></g><circle cx="1120" cy="103" r="16" fill="#fff4d6"/><g fill="#fff4d6" stroke="#e5bd6a" stroke-width="2.5"><circle cx="1125" cy="108" r="15"/><circle cx="1149" cy="107" r="15"/><circle cx="1137" cy="96" r="15"/></g><circle cx="1137" cy="104" r="12" fill="#fff4d6"/><g fill="#fff4d6" stroke="#e5bd6a" stroke-width="2.5"><circle cx="984" cy="111" r="18"/><circle cx="1013" cy="109" r="18"/><circle cx="999" cy="96" r="18"/></g><circle cx="999" cy="106" r="15" fill="#fff4d6"/><g fill="#fff4d6" stroke="#e5bd6a" stroke-width="2.5"><circle cx="1122" cy="111" r="16"/><circle cx="1149" cy="110" r="16"/><circle cx="1136" cy="97" r="16"/></g><circle cx="1136" cy="107" r="13" fill="#fff4d6"/><g fill="#fff4d6" stroke="#e5bd6a" stroke-width="2.5"><circle cx="1071" cy="111" r="15"/><circle cx="1096" cy="110" r="15"/><circle cx="1083" cy="99" r="15"/></g><circle cx="1083" cy="107" r="13" fill="#fff4d6"/><clipPath id="bk"><path d="M978 104H1210L1180 320H1008z"/></clipPath><g clip-path="url(#bk)"><rect x="960" y="100" width="270" height="230" fill="#fbf6ea"/><path fill="#e03a3e" d="M990 100h24l-14 230h-24z"/><path fill="#e03a3e" d="M1042 100h24l-7 230h-24z"/><path fill="#e03a3e" d="M1094 100h24l-0 230h-24z"/><path fill="#e03a3e" d="M1146 100h24l-7 230h-24z"/><path fill="#e03a3e" d="M1198 100h24l-14 230h-24z"/></g><rect x="968" y="98" width="252" height="22" rx="6" fill="#fbf6ea"/><rect x="968" y="98" width="252" height="22" rx="6" fill="none" stroke="#e03a3e" stroke-width="3"/><path fill="#fff4d6"  d="M117.2 177.1H106.3V158.3H106Q105.4 159.9 104.1 161.3Q102.8 162.7 100.9 163.6Q98.9 164.5 96.2 164.5Q92.4 164.5 89.2 162.5Q86 160.5 84.1 156.5Q82.3 152.5 82.3 146.6Q82.3 140.4 84.2 136.5Q86.2 132.5 89.3 130.6Q92.5 128.6 96.2 128.6Q99 128.6 100.9 129.6Q102.9 130.5 104.1 132Q105.4 133.5 106 135.1H106.4V129.1H117.2ZM100 156Q102 156 103.5 154.8Q105 153.6 105.8 151.5Q106.5 149.4 106.5 146.6Q106.5 143.7 105.8 141.6Q105 139.4 103.5 138.3Q102 137.1 100 137.1Q97.9 137.1 96.4 138.3Q95 139.5 94.2 141.6Q93.5 143.7 93.5 146.6Q93.5 149.4 94.2 151.5Q95 153.6 96.4 154.8Q97.9 156 100 156ZM136.5 164.4Q132.9 164.4 130.1 162.8Q127.4 161.2 125.9 158.2Q124.4 155.3 124.4 151.3V129.1H135.3V149.2Q135.3 152.1 136.8 153.8Q138.3 155.5 141 155.5Q142.8 155.5 144.1 154.7Q145.5 153.9 146.2 152.5Q147 151 147 149V129.1H157.9V164H147.6L147.4 155.2H147.9Q146.6 159.4 143.9 161.9Q141.1 164.4 136.5 164.4ZM174.8 164.6Q171.5 164.6 168.9 163.5Q166.3 162.3 164.8 160Q163.3 157.8 163.3 154.3Q163.3 151.4 164.4 149.4Q165.4 147.4 167.2 146.2Q169 144.9 171.3 144.3Q173.7 143.6 176.3 143.4Q179.3 143.1 181.1 142.8Q182.9 142.5 183.8 141.9Q184.6 141.4 184.6 140.3V140.1Q184.6 138.9 184 138.1Q183.5 137.3 182.4 136.8Q181.4 136.4 179.9 136.4Q178.4 136.4 177.2 136.8Q176 137.3 175.3 138.1Q174.5 138.9 174.2 140L164.3 138.7Q165 135.7 167.1 133.4Q169.1 131.2 172.3 129.9Q175.6 128.6 180 128.6Q183.2 128.6 186 129.4Q188.9 130.2 191 131.6Q193.1 133.1 194.3 135.3Q195.5 137.5 195.5 140.3V164H185.3V159.1H185Q184 160.9 182.6 162.1Q181.1 163.3 179.2 164Q177.3 164.6 174.8 164.6ZM178.2 157.4Q180 157.4 181.5 156.7Q183 155.9 183.8 154.6Q184.7 153.3 184.7 151.6V148.2Q184.2 148.5 183.5 148.7Q182.8 148.9 182 149.1Q181.1 149.3 180.3 149.4Q179.5 149.5 178.7 149.6Q177.1 149.9 176 150.4Q174.8 151 174.3 151.8Q173.7 152.6 173.7 153.8Q173.7 155 174.2 155.8Q174.8 156.6 175.8 157Q176.8 157.4 178.2 157.4ZM213.6 117.4V164H202.7V117.4ZM220.9 164V129.1H231.8V164ZM226.3 125Q224 125 222.3 123.4Q220.6 121.9 220.6 119.7Q220.6 117.5 222.3 116Q224 114.5 226.3 114.5Q228.6 114.5 230.3 116Q231.9 117.5 231.9 119.7Q231.9 121.9 230.3 123.4Q228.6 125 226.3 125ZM257.8 129.1V137.2H236V129.1ZM240.6 120.8H251.5V153.3Q251.5 154.7 252.2 155.4Q252.8 156 254.3 156Q254.9 156 255.9 155.9Q256.9 155.8 257.3 155.6L258.8 163.6Q256.9 164.1 255.2 164.3Q253.5 164.5 251.9 164.5Q246.4 164.5 243.5 161.9Q240.6 159.3 240.6 154.3ZM263.3 176.3 265.7 168.3 267.1 168.7Q269.1 169.2 270.6 168.9Q272.1 168.7 272.8 167.8Q273.6 167 273.6 165.5L273.5 164.1L260.5 129.1H272L277.2 146.1Q278.3 149.7 278.9 153.2Q279.5 156.7 280.3 160.8H278.1Q278.9 156.7 279.8 153.2Q280.6 149.6 281.7 146.1L287.3 129.1H298.7L284 167.7Q283 170.5 281.3 172.7Q279.5 174.9 276.8 176.1Q274.2 177.3 270.2 177.3Q268.2 177.3 266.4 177Q264.5 176.7 263.3 176.3ZM325.2 140.9V149.4H303.7V140.9ZM349.2 177.8Q344.7 177.8 341.2 176.7Q337.8 175.5 335.7 173.4Q333.6 171.4 333 168.6L342.5 166.7Q342.8 167.7 343.6 168.5Q344.5 169.3 345.8 169.7Q347.2 170.2 349.2 170.2Q352.5 170.2 354.3 168.7Q356.1 167.2 356.1 164.1V157.9H355.3Q354.6 159.5 353.4 160.8Q352.2 162 350.3 162.8Q348.4 163.5 345.8 163.5Q341.9 163.5 338.8 161.7Q335.6 159.9 333.7 156.2Q331.8 152.4 331.8 146.5Q331.8 140.4 333.7 136.4Q335.7 132.5 338.9 130.6Q342.1 128.6 345.8 128.6Q348.5 128.6 350.5 129.6Q352.5 130.5 353.8 132Q355.1 133.5 355.8 135.1H356.1V129.1H366.8V163.2Q366.8 168 364.6 171.3Q362.4 174.5 358.4 176.2Q354.4 177.8 349.2 177.8ZM349.5 155.5Q351.6 155.5 353.1 154.5Q354.5 153.4 355.3 151.4Q356.1 149.3 356.1 146.5Q356.1 143.6 355.3 141.5Q354.5 139.4 353.1 138.3Q351.6 137.1 349.5 137.1Q347.4 137.1 346 138.3Q344.5 139.5 343.7 141.6Q343 143.7 343 146.5Q343 149.3 343.7 151.3Q344.5 153.4 346 154.5Q347.4 155.5 349.5 155.5ZM383.8 164.6Q380.5 164.6 377.9 163.5Q375.2 162.3 373.8 160Q372.3 157.8 372.3 154.3Q372.3 151.4 373.3 149.4Q374.3 147.4 376.1 146.2Q378 144.9 380.3 144.3Q382.6 143.6 385.3 143.4Q388.3 143.1 390.1 142.8Q391.9 142.5 392.7 141.9Q393.6 141.4 393.6 140.3V140.1Q393.6 138.9 393 138.1Q392.5 137.3 391.4 136.8Q390.3 136.4 388.8 136.4Q387.3 136.4 386.2 136.8Q385 137.3 384.2 138.1Q383.5 138.9 383.2 140L373.3 138.7Q374 135.7 376 133.4Q378 131.2 381.3 129.9Q384.6 128.6 388.9 128.6Q392.2 128.6 395 129.4Q397.8 130.2 400 131.6Q402.1 133.1 403.3 135.3Q404.5 137.5 404.5 140.3V164H394.2V159.1H393.9Q393 160.9 391.5 162.1Q390.1 163.3 388.2 164Q386.2 164.6 383.8 164.6ZM387.1 157.4Q389 157.4 390.4 156.7Q391.9 155.9 392.8 154.6Q393.7 153.3 393.7 151.6V148.2Q393.2 148.5 392.5 148.7Q391.8 148.9 391 149.1Q390.1 149.3 389.3 149.4Q388.4 149.5 387.7 149.6Q386.1 149.9 384.9 150.4Q383.8 151 383.2 151.8Q382.6 152.6 382.6 153.8Q382.6 155 383.2 155.8Q383.8 156.6 384.8 157Q385.8 157.4 387.1 157.4ZM430.5 129.1V137.2H408.7V129.1ZM413.4 120.8H424.2V153.3Q424.2 154.7 424.9 155.4Q425.6 156 427 156Q427.6 156 428.6 155.9Q429.6 155.8 430.1 155.6L431.5 163.6Q429.6 164.1 427.9 164.3Q426.2 164.5 424.7 164.5Q419.1 164.5 416.2 161.9Q413.4 159.3 413.4 154.3ZM452.4 164.7Q446.9 164.7 443 162.5Q439 160.3 436.9 156.3Q434.8 152.3 434.8 146.7Q434.8 141.3 436.9 137.2Q439 133.2 442.9 130.9Q446.8 128.6 452 128.6Q455.7 128.6 458.8 129.8Q461.8 130.9 464.1 133.2Q466.4 135.5 467.6 138.8Q468.9 142.1 468.9 146.5V149.2H438.6V142.8H463.7L458.6 144.3Q458.6 141.9 457.8 140.2Q457.1 138.4 455.7 137.5Q454.2 136.5 452.1 136.5Q450 136.5 448.5 137.5Q447 138.4 446.3 140.1Q445.5 141.8 445.5 144.1V148.7Q445.5 151.4 446.4 153.2Q447.3 155 448.9 155.9Q450.5 156.8 452.6 156.8Q454.1 156.8 455.3 156.3Q456.5 155.9 457.3 155.1Q458.2 154.3 458.6 153.2L468.3 154.8Q467.5 157.8 465.3 160Q463.2 162.2 459.9 163.4Q456.7 164.7 452.4 164.7ZM496.8 140.9V149.4H475.3V140.9ZM521 164.7Q515.5 164.7 511.6 162.5Q507.6 160.3 505.5 156.3Q503.4 152.3 503.4 146.7Q503.4 141.3 505.5 137.2Q507.6 133.2 511.5 130.9Q515.3 128.6 520.6 128.6Q524.3 128.6 527.4 129.8Q530.4 130.9 532.7 133.2Q535 135.5 536.2 138.8Q537.5 142.1 537.5 146.5V149.2H507.2V142.8H532.3L527.2 144.3Q527.2 141.9 526.4 140.2Q525.7 138.4 524.3 137.5Q522.8 136.5 520.7 136.5Q518.6 136.5 517.1 137.5Q515.6 138.4 514.9 140.1Q514.1 141.8 514.1 144.1V148.7Q514.1 151.4 515 153.2Q515.9 155 517.5 155.9Q519.1 156.8 521.2 156.8Q522.7 156.8 523.9 156.3Q525.1 155.9 525.9 155.1Q526.8 154.3 527.2 153.2L536.9 154.8Q536.1 157.8 533.9 160Q531.8 162.2 528.5 163.4Q525.2 164.7 521 164.7ZM554.1 144.1V164H543.2V129.1H553.4L553.6 137.9H553.1Q554.4 133.7 557.2 131.2Q559.9 128.6 564.5 128.6Q568.2 128.6 570.9 130.3Q573.6 131.9 575.1 134.8Q576.6 137.8 576.6 141.8V164H565.7V143.9Q565.7 140.9 564.2 139.3Q562.7 137.6 560 137.6Q558.3 137.6 556.9 138.4Q555.6 139.1 554.8 140.6Q554.1 142 554.1 144.1ZM600 164.7Q594.6 164.7 590.6 162.4Q586.7 160.1 584.6 156.1Q582.5 152 582.5 146.7Q582.5 141.3 584.6 137.2Q586.7 133.1 590.6 130.9Q594.6 128.6 600 128.6Q603.4 128.6 606.2 129.5Q608.9 130.4 611 132Q613.1 133.6 614.4 135.9Q615.7 138.2 616.1 141L606.1 142.7Q605.8 141.3 605.3 140.3Q604.8 139.2 604 138.5Q603.3 137.7 602.3 137.3Q601.4 137 600.2 137Q598.1 137 596.6 138.1Q595.1 139.3 594.4 141.4Q593.6 143.6 593.6 146.6Q593.6 149.6 594.4 151.8Q595.1 154 596.6 155.1Q598.1 156.3 600.2 156.3Q601.4 156.3 602.3 155.9Q603.3 155.5 604.1 154.8Q604.8 154 605.4 152.9Q605.9 151.8 606.1 150.4L616.2 152Q615.7 154.9 614.4 157.3Q613.1 159.6 611.1 161.3Q609 162.9 606.2 163.8Q603.4 164.7 600 164.7ZM638.1 164.7Q632.7 164.7 628.7 162.4Q624.8 160.1 622.7 156.1Q620.6 152 620.6 146.7Q620.6 141.3 622.7 137.2Q624.8 133.1 628.7 130.9Q632.7 128.6 638.1 128.6Q643.6 128.6 647.5 130.9Q651.5 133.1 653.6 137.2Q655.7 141.3 655.7 146.7Q655.7 152 653.6 156.1Q651.5 160.1 647.5 162.4Q643.6 164.7 638.1 164.7ZM638.1 156.3Q640.2 156.3 641.7 155.1Q643.1 153.9 643.8 151.7Q644.6 149.5 644.6 146.6Q644.6 143.7 643.8 141.5Q643.1 139.4 641.7 138.2Q640.2 137 638.1 137Q636 137 634.6 138.2Q633.2 139.4 632.4 141.5Q631.7 143.7 631.7 146.6Q631.7 149.5 632.4 151.7Q633.2 153.9 634.6 155.1Q636 156.3 638.1 156.3ZM674.2 164.5Q670.3 164.5 667.1 162.5Q663.9 160.5 662.1 156.5Q660.2 152.5 660.2 146.6Q660.2 140.4 662.1 136.5Q664.1 132.5 667.3 130.6Q670.4 128.6 674.1 128.6Q676.9 128.6 678.9 129.6Q680.8 130.5 682.1 132Q683.4 133.5 684 135.1H684.2V117.4H695.1V164H684.4V158.3H684Q683.3 159.9 682 161.3Q680.7 162.7 678.8 163.6Q676.9 164.5 674.2 164.5ZM677.9 156Q680 156 681.5 154.8Q682.9 153.6 683.7 151.5Q684.5 149.4 684.5 146.6Q684.5 143.7 683.7 141.6Q682.9 139.4 681.5 138.3Q680 137.1 677.9 137.1Q675.8 137.1 674.3 138.3Q672.9 139.5 672.1 141.6Q671.4 143.7 671.4 146.6Q671.4 149.4 672.1 151.5Q672.9 153.6 674.4 154.8Q675.8 156 677.9 156ZM718.6 164.7Q713.1 164.7 709.2 162.5Q705.2 160.3 703.1 156.3Q701 152.3 701 146.7Q701 141.3 703.1 137.2Q705.2 133.2 709.1 130.9Q713 128.6 718.2 128.6Q721.9 128.6 725 129.8Q728.1 130.9 730.3 133.2Q732.6 135.5 733.8 138.8Q735.1 142.1 735.1 146.5V149.2H704.9V142.8H729.9L724.8 144.3Q724.8 141.9 724.1 140.2Q723.3 138.4 721.9 137.5Q720.4 136.5 718.3 136.5Q716.2 136.5 714.7 137.5Q713.2 138.4 712.5 140.1Q711.7 141.8 711.7 144.1V148.7Q711.7 151.4 712.6 153.2Q713.5 155 715.1 155.9Q716.7 156.8 718.8 156.8Q720.3 156.8 721.5 156.3Q722.7 155.9 723.5 155.1Q724.4 154.3 724.8 153.2L734.6 154.8Q733.7 157.8 731.5 160Q729.4 162.2 726.1 163.4Q722.9 164.7 718.6 164.7ZM740.8 164V129.1H751.4V135.4H751.7Q752.7 132 754.9 130.3Q757 128.6 759.9 128.6Q760.7 128.6 761.5 128.7Q762.3 128.8 763 129V138.5Q762.2 138.2 761 138.1Q759.7 137.9 758.7 137.9Q756.7 137.9 755.1 138.8Q753.5 139.7 752.6 141.3Q751.7 142.8 751.7 144.9V164Z"/><path fill="#f2b8a8"  d="M89.9 212V204.2L82.7 192.4H86.2L89.9 198.6Q90.5 199.6 91 200.6Q91.4 201.5 91.9 202.9H91Q91.5 201.5 91.9 200.6Q92.4 199.6 93 198.6L96.6 192.4H100.1L92.9 204.2V212ZM108.9 212.3Q106.9 212.3 105.3 211.4Q103.8 210.4 102.9 208.7Q102.1 207 102.1 204.7Q102.1 202.4 102.9 200.7Q103.8 199 105.3 198Q106.9 197.1 108.9 197.1Q111 197.1 112.6 198Q114.1 199 115 200.7Q115.8 202.4 115.8 204.7Q115.8 207 115 208.7Q114.1 210.4 112.6 211.4Q111 212.3 108.9 212.3ZM108.9 209.9Q110.3 209.9 111.2 209.1Q112 208.4 112.5 207.3Q112.9 206.1 112.9 204.7Q112.9 203.3 112.5 202.1Q112 200.9 111.2 200.2Q110.3 199.5 108.9 199.5Q107.6 199.5 106.7 200.2Q105.9 200.9 105.4 202.1Q105 203.3 105 204.7Q105 206.1 105.4 207.3Q105.9 208.4 106.7 209.1Q107.6 209.9 108.9 209.9ZM124.1 212.2Q122.6 212.2 121.4 211.6Q120.3 210.9 119.7 209.7Q119.1 208.4 119.1 206.6V197.3H122V206.3Q122 207.9 122.8 208.8Q123.6 209.7 125.1 209.7Q126.1 209.7 126.8 209.2Q127.6 208.8 128 208Q128.5 207.2 128.5 206V197.3H131.4V212H128.6L128.6 208.4H128.9Q128.2 210.4 127 211.3Q125.8 212.2 124.1 212.2ZM135.3 212V197.3H138.1V199.6H138.3Q138.7 198.4 139.7 197.7Q140.7 197.1 142 197.1Q142.3 197.1 142.6 197.1Q143 197.1 143.2 197.1V199.9Q143.1 199.8 142.6 199.8Q142.2 199.7 141.7 199.7Q140.7 199.7 139.9 200.2Q139.1 200.6 138.7 201.3Q138.2 202.1 138.2 203.1V212ZM156.2 212 151.7 197.3H154.8L156.4 203.4Q156.8 204.7 157.2 206.4Q157.6 208.1 158 210.2H157.6Q157.9 208.2 158.3 206.5Q158.8 204.8 159.1 203.4L160.8 197.3H163.7L165.2 203.4Q165.6 204.8 166 206.5Q166.4 208.1 166.8 210.2H166.4Q166.8 208.2 167.2 206.5Q167.5 204.8 167.9 203.4L169.5 197.3H172.6L168.2 212H165.3L163.4 205.7Q163.2 204.7 162.9 203.6Q162.6 202.6 162.4 201.5Q162.1 200.4 161.9 199.3H162.5Q162.2 200.4 162 201.5Q161.7 202.6 161.4 203.7Q161.2 204.7 160.9 205.7L159.1 212ZM178.2 203.3V212H175.3V192.4H178.2V200.9H177.8Q178.5 198.9 179.7 198Q180.9 197.1 182.7 197.1Q184.2 197.1 185.3 197.7Q186.4 198.3 187 199.6Q187.7 200.8 187.7 202.6V212H184.8V203Q184.8 201.4 183.9 200.5Q183.1 199.6 181.7 199.6Q180.7 199.6 179.9 200Q179.1 200.5 178.7 201.3Q178.2 202.1 178.2 203.3ZM197.8 212.3Q195.7 212.3 194.1 211.4Q192.6 210.4 191.7 208.7Q190.9 207 190.9 204.7Q190.9 202.4 191.7 200.7Q192.6 199 194.1 198Q195.7 197.1 197.8 197.1Q199.9 197.1 201.4 198Q203 199 203.8 200.7Q204.7 202.4 204.7 204.7Q204.7 207 203.8 208.7Q203 210.4 201.4 211.4Q199.9 212.3 197.8 212.3ZM197.8 209.9Q199.1 209.9 200 209.1Q200.9 208.4 201.3 207.3Q201.7 206.1 201.7 204.7Q201.7 203.3 201.3 202.1Q200.9 200.9 200 200.2Q199.1 199.5 197.8 199.5Q196.4 199.5 195.6 200.2Q194.7 200.9 194.3 202.1Q193.8 203.3 193.8 204.7Q193.8 206.1 194.3 207.3Q194.7 208.4 195.6 209.1Q196.4 209.9 197.8 209.9ZM210.8 192.4V212H207.9V192.4ZM221 212.3Q218.9 212.3 217.3 211.4Q215.7 210.4 214.9 208.7Q214 207 214 204.7Q214 202.5 214.8 200.7Q215.7 199 217.2 198Q218.7 197.1 220.8 197.1Q222 197.1 223.2 197.5Q224.4 197.9 225.3 198.8Q226.3 199.7 226.8 201.1Q227.4 202.5 227.4 204.5V205.5H215.6V203.3H225.9L224.5 204.1Q224.5 202.7 224.1 201.7Q223.7 200.6 222.8 200.1Q222 199.5 220.8 199.5Q219.6 199.5 218.7 200.1Q217.8 200.7 217.4 201.6Q216.9 202.6 216.9 203.7V205.2Q216.9 206.7 217.4 207.8Q217.9 208.8 218.9 209.4Q219.8 209.9 221.1 209.9Q221.9 209.9 222.5 209.7Q223.2 209.4 223.7 209Q224.2 208.5 224.4 207.8L227.1 208.5Q226.8 209.6 225.9 210.5Q225.1 211.3 223.9 211.8Q222.6 212.3 221 212.3ZM240.6 192.4V212H237.7V192.4ZM244.5 212V197.3H247.4V212ZM246 195Q245.3 195 244.7 194.5Q244.2 194 244.2 193.3Q244.2 192.6 244.7 192.1Q245.3 191.6 246 191.6Q246.8 191.6 247.3 192.1Q247.8 192.6 247.8 193.3Q247.8 194 247.3 194.5Q246.8 195 246 195ZM258.7 212.3Q257.3 212.3 256.5 211.8Q255.6 211.4 255.1 210.8Q254.7 210.2 254.4 209.7H254.2V212H251.3V192.4H254.2V199.7H254.4Q254.7 199.2 255.1 198.6Q255.6 198 256.4 197.5Q257.3 197.1 258.7 197.1Q260.4 197.1 261.8 198Q263.2 198.9 264 200.6Q264.8 202.3 264.8 204.7Q264.8 207 264 208.8Q263.2 210.5 261.8 211.4Q260.5 212.3 258.7 212.3ZM258 209.8Q259.3 209.8 260.1 209.1Q261 208.5 261.4 207.3Q261.9 206.1 261.9 204.6Q261.9 203.2 261.4 202Q261 200.9 260.1 200.2Q259.3 199.5 258 199.5Q256.8 199.5 255.9 200.2Q255.1 200.8 254.6 202Q254.2 203.1 254.2 204.6Q254.2 206.2 254.6 207.3Q255.1 208.5 255.9 209.2Q256.8 209.8 258 209.8ZM268 212V197.3H270.8V199.6H271Q271.4 198.4 272.4 197.7Q273.4 197.1 274.7 197.1Q275 197.1 275.4 197.1Q275.7 197.1 276 197.1V199.9Q275.8 199.8 275.3 199.8Q274.9 199.7 274.4 199.7Q273.4 199.7 272.6 200.2Q271.8 200.6 271.4 201.3Q270.9 202.1 270.9 203.1V212ZM282.6 212.3Q281.2 212.3 280.1 211.8Q278.9 211.3 278.3 210.3Q277.6 209.3 277.6 207.8Q277.6 206.6 278.1 205.8Q278.6 205 279.4 204.5Q280.2 204 281.2 203.8Q282.2 203.6 283.3 203.4Q284.6 203.3 285.4 203.2Q286.2 203.1 286.6 202.8Q287 202.6 287 202.1V202Q287 201.2 286.7 200.6Q286.4 200.1 285.7 199.7Q285.1 199.4 284.2 199.4Q283.2 199.4 282.5 199.7Q281.8 200 281.4 200.5Q281 200.9 280.8 201.4L278 200.7Q278.5 199.4 279.5 198.6Q280.4 197.8 281.6 197.4Q282.8 197.1 284.1 197.1Q285 197.1 286 197.3Q287 197.5 287.9 198.1Q288.8 198.6 289.3 199.6Q289.9 200.6 289.9 202.2V212H287.1V210H287Q286.7 210.6 286.1 211.1Q285.5 211.6 284.7 212Q283.8 212.3 282.6 212.3ZM283.2 210Q284.4 210 285.3 209.5Q286.1 209.1 286.6 208.3Q287 207.5 287 206.7V204.8Q286.9 205 286.4 205.1Q286 205.2 285.4 205.3Q284.8 205.4 284.3 205.5Q283.8 205.5 283.4 205.6Q282.6 205.7 282 205.9Q281.3 206.2 280.9 206.6Q280.5 207.1 280.5 207.9Q280.5 208.6 280.8 209Q281.2 209.5 281.8 209.8Q282.4 210 283.2 210ZM293.8 212V197.3H296.6V199.6H296.8Q297.2 198.4 298.2 197.7Q299.2 197.1 300.5 197.1Q300.8 197.1 301.1 197.1Q301.5 197.1 301.7 197.1V199.9Q301.6 199.8 301.1 199.8Q300.7 199.7 300.2 199.7Q299.2 199.7 298.4 200.2Q297.6 200.6 297.2 201.3Q296.7 202.1 296.7 203.1V212ZM304.1 217.3 304.8 214.9 305.1 215Q305.8 215.2 306.4 215.1Q307 215 307.5 214.6Q307.9 214.1 308.2 213.1L308.5 212.1L302.9 197.3H306L309 205.6Q309.4 207 309.8 208.4Q310.1 209.8 310.5 211.2H309.6Q310 209.8 310.3 208.4Q310.7 207 311.1 205.6L314.1 197.3H317.2L310.8 214Q310.4 215.2 309.7 216Q309.1 216.8 308.2 217.2Q307.3 217.6 306.1 217.6Q305.4 217.6 304.9 217.5Q304.3 217.4 304.1 217.3ZM319.5 216.9 320.6 209.2H323.8L321.6 216.9ZM339.3 212.3Q337.9 212.3 336.8 211.8Q335.6 211.3 335 210.3Q334.3 209.3 334.3 207.8Q334.3 206.6 334.8 205.8Q335.3 205 336.1 204.5Q336.9 204 337.9 203.8Q338.9 203.6 340 203.4Q341.3 203.3 342.1 203.2Q342.9 203.1 343.3 202.8Q343.7 202.6 343.7 202.1V202Q343.7 201.2 343.4 200.6Q343.1 200.1 342.4 199.7Q341.8 199.4 340.9 199.4Q339.9 199.4 339.2 199.7Q338.5 200 338.1 200.5Q337.7 200.9 337.5 201.4L334.7 200.7Q335.2 199.4 336.2 198.6Q337.1 197.8 338.3 197.4Q339.5 197.1 340.8 197.1Q341.7 197.1 342.7 197.3Q343.7 197.5 344.6 198.1Q345.5 198.6 346 199.6Q346.6 200.6 346.6 202.2V212H343.8V210H343.6Q343.4 210.6 342.8 211.1Q342.2 211.6 341.4 212Q340.5 212.3 339.3 212.3ZM339.9 210Q341.1 210 342 209.5Q342.8 209.1 343.3 208.3Q343.7 207.5 343.7 206.7V204.8Q343.5 205 343.1 205.1Q342.7 205.2 342.1 205.3Q341.5 205.4 341 205.5Q340.5 205.5 340.1 205.6Q339.3 205.7 338.6 205.9Q338 206.2 337.6 206.6Q337.2 207.1 337.2 207.9Q337.2 208.6 337.5 209Q337.9 209.5 338.5 209.8Q339.1 210 339.9 210ZM353.4 192.4V212H350.5V192.4ZM362.6 212.3Q361 212.3 359.7 211.8Q358.5 211.4 357.7 210.5Q356.9 209.6 356.6 208.3L359.4 207.7Q359.7 208.9 360.5 209.4Q361.3 210 362.6 210Q364 210 364.8 209.4Q365.7 208.8 365.7 208Q365.7 207.3 365.2 206.8Q364.7 206.3 363.6 206.1L361.1 205.5Q359.1 205.1 358.1 204.1Q357.1 203.1 357.1 201.5Q357.1 200.1 357.8 199.2Q358.5 198.2 359.8 197.6Q361.1 197.1 362.8 197.1Q364.4 197.1 365.5 197.5Q366.6 198 367.3 198.8Q368 199.7 368.4 200.8L365.8 201.3Q365.5 200.5 364.8 200Q364.1 199.4 362.8 199.4Q361.6 199.4 360.8 199.9Q360 200.4 360 201.3Q360 202 360.5 202.5Q361.1 202.9 362.3 203.2L364.6 203.7Q366.7 204.2 367.7 205.2Q368.7 206.2 368.7 207.7Q368.7 209.1 367.9 210.1Q367.1 211.1 365.8 211.7Q364.4 212.3 362.6 212.3ZM378 212.3Q376 212.3 374.4 211.4Q372.9 210.4 372 208.7Q371.2 207 371.2 204.7Q371.2 202.4 372 200.7Q372.9 199 374.4 198Q376 197.1 378 197.1Q380.1 197.1 381.7 198Q383.2 199 384.1 200.7Q384.9 202.4 384.9 204.7Q384.9 207 384.1 208.7Q383.2 210.4 381.7 211.4Q380.1 212.3 378 212.3ZM378 209.9Q379.4 209.9 380.3 209.1Q381.1 208.4 381.6 207.3Q382 206.1 382 204.7Q382 203.3 381.6 202.1Q381.1 200.9 380.3 200.2Q379.4 199.5 378 199.5Q376.7 199.5 375.8 200.2Q375 200.9 374.5 202.1Q374.1 203.3 374.1 204.7Q374.1 206.1 374.5 207.3Q375 208.4 375.8 209.1Q376.7 209.9 378 209.9ZM395.3 212V197.3H398.2V212ZM396.8 195Q396.1 195 395.5 194.5Q395 194 395 193.3Q395 192.6 395.5 192.1Q396.1 191.6 396.8 191.6Q397.6 191.6 398.1 192.1Q398.6 192.6 398.6 193.3Q398.6 194 398.1 194.5Q397.6 195 396.8 195ZM405 203.3V212H402.1V197.3H404.9L404.9 200.9H404.6Q405.3 198.9 406.5 198Q407.7 197.1 409.5 197.1Q411 197.1 412.1 197.7Q413.2 198.3 413.9 199.6Q414.5 200.8 414.5 202.6V212H411.6V203Q411.6 201.4 410.8 200.5Q409.9 199.6 408.5 199.6Q407.5 199.6 406.7 200Q405.9 200.5 405.5 201.3Q405 202.1 405 203.3ZM426.2 212 434.7 195.1V194.9H424.8V192.4H437.9V195L429.3 212ZM441 212V209.8L447.6 202.9Q448.7 201.9 449.3 201Q450 200.2 450.4 199.4Q450.7 198.7 450.7 197.8Q450.7 196.8 450.3 196.1Q449.8 195.4 449 195Q448.3 194.6 447.3 194.6Q446.2 194.6 445.4 195Q444.7 195.5 444.2 196.2Q443.8 197 443.8 198.1H440.9Q440.9 196.3 441.8 194.9Q442.6 193.6 444 192.8Q445.5 192.1 447.3 192.1Q449.2 192.1 450.6 192.8Q452 193.6 452.8 194.8Q453.6 196.1 453.6 197.7Q453.6 198.8 453.2 199.8Q452.8 200.8 451.8 202.1Q450.8 203.4 449 205.3L445.1 209.3V209.4H453.9V212ZM464.4 212.3Q462.1 212.3 460.5 211.1Q458.9 209.9 458 207.6Q457.2 205.4 457.2 202.2Q457.2 199 458 196.7Q458.9 194.5 460.5 193.3Q462.1 192.1 464.4 192.1Q466.7 192.1 468.3 193.3Q469.9 194.5 470.8 196.7Q471.6 199 471.6 202.2Q471.6 205.4 470.8 207.6Q469.9 209.9 468.3 211.1Q466.7 212.3 464.4 212.3ZM464.4 209.7Q465.8 209.7 466.7 208.8Q467.7 207.9 468.2 206.2Q468.7 204.6 468.7 202.2Q468.7 199.8 468.2 198.1Q467.7 196.4 466.7 195.5Q465.8 194.7 464.4 194.7Q463.1 194.7 462.1 195.5Q461.2 196.4 460.7 198.1Q460.2 199.8 460.2 202.2Q460.2 204.6 460.7 206.2Q461.2 207.9 462.1 208.8Q463.1 209.7 464.4 209.7ZM475.1 217.5V197.3H477.9V199.7H478.1Q478.4 199.2 478.9 198.6Q479.3 198 480.2 197.5Q481 197.1 482.4 197.1Q484.2 197.1 485.6 198Q486.9 198.9 487.7 200.6Q488.6 202.3 488.6 204.7Q488.6 207 487.8 208.8Q487 210.5 485.6 211.4Q484.2 212.3 482.4 212.3Q481.1 212.3 480.2 211.8Q479.4 211.4 478.9 210.8Q478.4 210.2 478.1 209.7H478V217.5ZM481.8 209.8Q483 209.8 483.9 209.1Q484.7 208.5 485.2 207.3Q485.6 206.1 485.6 204.6Q485.6 203.2 485.2 202Q484.7 200.9 483.9 200.2Q483 199.5 481.8 199.5Q480.5 199.5 479.7 200.2Q478.8 200.8 478.4 202Q477.9 203.1 477.9 204.6Q477.9 206.2 478.4 207.3Q478.8 208.5 479.7 209.2Q480.5 209.8 481.8 209.8Z"/></svg>
